<mxfile host="app.diagrams.net" agent="Mozilla/5.0 (Windows NT 10.0; Win64; x64) AppleWebKit/537.36 (KHTML, like Gecko) Chrome/130.0.0.0 Safari/537.36" version="24.7.4">
  <diagram name="第 1 页" id="v-kbS23LeTsC2UUnn1fN">
    <mxGraphModel dx="1562" dy="810" grid="1" gridSize="10" guides="1" tooltips="1" connect="1" arrows="1" fold="1" page="1" pageScale="1" pageWidth="827" pageHeight="1169" math="0" shadow="0">
      <root>
        <mxCell id="0" />
        <mxCell id="1" parent="0" />
        <mxCell id="aLqjdNRT8SBsfwmVXrsm-8" value="Pool" style="swimlane;childLayout=stackLayout;resizeParent=1;resizeParentMax=0;startSize=20;horizontal=0;horizontalStack=1;" vertex="1" parent="1">
          <mxGeometry x="540" y="160" width="480" height="780" as="geometry" />
        </mxCell>
        <mxCell id="aLqjdNRT8SBsfwmVXrsm-9" value="D+智享车生活" style="swimlane;startSize=20;" vertex="1" parent="aLqjdNRT8SBsfwmVXrsm-8">
          <mxGeometry x="20" width="240" height="780" as="geometry" />
        </mxCell>
        <mxCell id="aLqjdNRT8SBsfwmVXrsm-11" value="账户中心" style="swimlane;startSize=20;" vertex="1" parent="aLqjdNRT8SBsfwmVXrsm-8">
          <mxGeometry x="260" width="220" height="780" as="geometry" />
        </mxCell>
        <mxCell id="aLqjdNRT8SBsfwmVXrsm-12" style="edgeStyle=orthogonalEdgeStyle;rounded=0;orthogonalLoop=1;jettySize=auto;html=1;exitX=0.5;exitY=1;exitDx=0;exitDy=0;entryX=0.5;entryY=0;entryDx=0;entryDy=0;" edge="1" parent="aLqjdNRT8SBsfwmVXrsm-11" source="aLqjdNRT8SBsfwmVXrsm-13" target="aLqjdNRT8SBsfwmVXrsm-14">
          <mxGeometry relative="1" as="geometry" />
        </mxCell>
        <mxCell id="aLqjdNRT8SBsfwmVXrsm-13" value="开始" style="rounded=1;whiteSpace=wrap;html=1;" vertex="1" parent="aLqjdNRT8SBsfwmVXrsm-11">
          <mxGeometry x="65" y="60" width="110" height="40" as="geometry" />
        </mxCell>
        <mxCell id="aLqjdNRT8SBsfwmVXrsm-17" value="" style="edgeStyle=orthogonalEdgeStyle;rounded=0;orthogonalLoop=1;jettySize=auto;html=1;" edge="1" parent="aLqjdNRT8SBsfwmVXrsm-11" source="aLqjdNRT8SBsfwmVXrsm-14" target="aLqjdNRT8SBsfwmVXrsm-16">
          <mxGeometry relative="1" as="geometry" />
        </mxCell>
        <mxCell id="aLqjdNRT8SBsfwmVXrsm-14" value="根据商户号查询创建时间在在10月1号之后的数据" style="rounded=0;whiteSpace=wrap;html=1;" vertex="1" parent="aLqjdNRT8SBsfwmVXrsm-11">
          <mxGeometry x="60" y="140" width="120" height="60" as="geometry" />
        </mxCell>
        <mxCell id="aLqjdNRT8SBsfwmVXrsm-16" value="根据id更新记录的创建时间在2024年9月25-29日 09:00-18:00之间" style="whiteSpace=wrap;html=1;rounded=0;" vertex="1" parent="aLqjdNRT8SBsfwmVXrsm-11">
          <mxGeometry x="60" y="240" width="120" height="70" as="geometry" />
        </mxCell>
        <mxCell id="aLqjdNRT8SBsfwmVXrsm-15" value="SELECT&amp;nbsp;*&amp;nbsp;FROM&amp;nbsp;`platform_merchant`&amp;nbsp;WHERE&amp;nbsp;created_time&amp;nbsp;&amp;gt;=&amp;nbsp;&#39;2024-10-01&amp;nbsp;00:00:00&#39;&amp;nbsp;AND&amp;nbsp;merchantNo&amp;nbsp;IN （?,?,?）" style="text;html=1;align=center;verticalAlign=middle;whiteSpace=wrap;rounded=0;" vertex="1" parent="1">
          <mxGeometry x="1020" y="300" width="540" height="50" as="geometry" />
        </mxCell>
        <mxCell id="aLqjdNRT8SBsfwmVXrsm-19" value="update&amp;nbsp;`scrm_account`.`platform_merchant`&amp;nbsp;set&amp;nbsp;`created_time`&amp;nbsp;=&amp;nbsp;&#39;2024-09-28&amp;nbsp;17:00:12&#39;&amp;nbsp;,&amp;nbsp;`updated_time`&amp;nbsp;=&amp;nbsp;&#39;2024-09-28&amp;nbsp;17:00:19&#39;&lt;br&gt;&amp;nbsp;&amp;nbsp;&amp;nbsp;&amp;nbsp;&amp;nbsp;&amp;nbsp;&amp;nbsp;&amp;nbsp;where&lt;br&gt;&amp;nbsp;&amp;nbsp;&amp;nbsp;&amp;nbsp;&amp;nbsp;&amp;nbsp;&amp;nbsp;&amp;nbsp;`id`&amp;nbsp;=&amp;nbsp;&#39;25667&#39;;" style="text;html=1;align=center;verticalAlign=middle;whiteSpace=wrap;rounded=0;" vertex="1" parent="1">
          <mxGeometry x="1090" y="400" width="540" height="70" as="geometry" />
        </mxCell>
        <mxCell id="aLqjdNRT8SBsfwmVXrsm-22" style="edgeStyle=orthogonalEdgeStyle;rounded=0;orthogonalLoop=1;jettySize=auto;html=1;exitX=1;exitY=0.5;exitDx=0;exitDy=0;" edge="1" parent="1" source="aLqjdNRT8SBsfwmVXrsm-16" target="aLqjdNRT8SBsfwmVXrsm-19">
          <mxGeometry relative="1" as="geometry" />
        </mxCell>
      </root>
    </mxGraphModel>
  </diagram>
</mxfile>
